<?xml version="1.0" encoding="UTF-8"?>
<svg id="Layer_1" data-name="Layer 1" xmlns="http://www.w3.org/2000/svg" viewBox="0 0 16 16">
  <defs>
    <style>
      .cls-1 {
        fill: #d91b5d;
      }
    </style>
  </defs>
  <path class="cls-1" d="m11.94,3.2c-.23.46-.42.67-.42.67-.37.48-.82.9-1.21,1.1h0s-.05.03-.05.03c-.02.01-.04.03-.04.03h0c-.2.15-.99.47-1.45.63-.51.22-1.95.56-3.12.92-2.26.66-2.95,2.07-2.95,2.07-.36.65-.3,1.4-.3,1.4.07,1,.85,1.65.85,1.65.53.54,1.32.82,1.32.82-.82-.33-1.26-.85-1.57-1.29-.32-.44-.36-1.22-.36-1.22.01-1.08.69-1.64.69-1.64,1.12-1,2.88-1.46,2.88-1.46.54-.13,1.93-.52,1.93-.52,1.4-.4,2.11-.9,2.11-.9,2-1.26,2.24-3.64,2.24-3.64-.17.51-.33.9-.56,1.36Z"/>
  <path class="cls-1" d="m10.93,2.5c-.25.3-.78.59-.78.59-.83.45-1.47.51-1.47.51l-.74.08c-.81.02-2.07,0-2.07,0l-1.54-.03c-1.49.06-2.26.48-2.26.48,0,0-1.09.49-1.4,1.46-.31.97.05,1.64.05,1.64.39,1.02,1.14,1.48,1.14,1.48-1.08-.82-1.09-2-1.09-2-.04-.76.22-1.17.22-1.17.31-.63,1.03-.95,1.03-.95.85-.4,2.11-.48,2.11-.48.94-.02,2.13.04,2.13.04.98.06,1.85-.05,1.85-.05,1.15-.16,1.76-.5,1.76-.5.85-.5,1.23-.97,1.23-.97.5-.55.91-1.36.91-1.36-.32.48-1.07,1.24-1.07,1.24Zm-2.42,1.35l-.84.07-.94.03-.88-.03-.75-.04h-.7s-.68.08-.68.08l-.56.11-.41.1-.22.08-.41.14-.33.13s.14-.1.38-.19l.54-.2.6-.15s.66-.14,1.24-.15h.56s.66.04.66.04l.78.02h.68s.73-.02.73-.02l.45-.03.56-.07-.46.09Z"/>
  <path class="cls-1" d="m12.85,2.51c.04,1.3-.45,2.36-.45,2.36-.48,1.17-1.57,1.92-1.57,1.92-.39.33-2,1.32-2,1.32l-.8.5c-1.06.55-1.95,1.55-2.16,1.8l-.08.11c-.91,1.52-.39,2.55-.39,2.55.32,1,1.31,1.46,2.01,1.67-1.02-.37-1.83-1.31-1.89-2.23-.07-1.15.91-2.42,3.49-3.93s3.03-2.44,3.03-2.44c1.15-1.65.8-3.63.8-3.63Zm-2.31,4.86l-.71.5s-.63.39-.84.49l-.5.26s-.63.33-1.15.76c0,0-.99.75-1.39,1.44,0,0,.07-.25.57-.81l.38-.36.51-.44.28-.2s.24-.18.64-.42c0,0,.13-.07.78-.41,0,0,.31-.14,1.03-.62,0,0,.77-.48,1.49-1.14,0,0-.6.6-1.08.94Z"/>
  <path class="cls-1" d="m15.35,5.43l-.34-.31-.27-.28c-.68-.6-.71-.92-.71-.92.21-.02.36-.34.36-.34-.12.15-.36.14-.36.14.2-.85-1.06-2.16-1.06-2.12.63,3.23-.54,4.69-.54,4.69,0,0-.21.45-.81,1.09s-2.03,1.67-2.03,1.67c0,0-1.68,1.22-1.87,2.31-.19,1.09.31,1.74.31,1.74.15-.14.72-.2.72-.2.96-.1,1.53.33,1.53.33l.77.38s.27.19.9.37.24-.22.24-.22c0,0-.43-.48-.65-.72-.21-.24-.42-.62-.42-.62-.32-.87,0-1.08.19-1.57.19-.49.53-1.07.53-1.07,0,0,.1-.17.29-.45s.42-.34,1.12-.36c.71-.02,1.09-.12,1.09-.12.78-.34.27-1,.27-1-.12-.09.12-.25.12-.25.2-.09.03-.32.03-.32l-.12-.18s.39-.21.29-.37-.09-.3-.09-.3c1-.73.51-1.01.51-1.01Zm-1.28-1.58v-.04s.08,0,.2-.09c0,0-.07.11-.2.14h0Z"/>
</svg>